<?xml version="1.0" standalone="no"?>
<!DOCTYPE svg PUBLIC "-//W3C//DTD SVG 20010904//EN"
 "http://www.w3.org/TR/2001/REC-SVG-20010904/DTD/svg10.dtd">
<svg version="1.0" xmlns="http://www.w3.org/2000/svg"
 width="512.000000pt" height="512.000000pt" viewBox="0 0 512.000000 512.000000"
 preserveAspectRatio="xMidYMid meet">

<g transform="translate(0.000000,512.000000) scale(0.100000,-0.100000)"
fill="#fff" stroke="none">
<path d="M2515 5114 c-47 -11 -79 -54 -159 -210 l-81 -159 -180 -26 c-99 -14
-194 -33 -211 -42 -36 -19 -74 -87 -74 -133 0 -46 32 -88 166 -218 l124 -121
-30 -160 c-16 -88 -30 -174 -30 -191 0 -61 68 -132 136 -141 35 -4 60 5 212
82 l172 87 172 -87 c152 -77 177 -86 212 -82 68 9 136 80 136 141 0 17 -14
103 -30 191 l-30 160 124 121 c174 169 189 200 145 292 -29 60 -68 75 -254
101 -82 12 -160 24 -173 26 -17 4 -40 41 -102 164 -55 111 -88 165 -109 180
-29 21 -98 33 -136 25z"/>
<path d="M676 4185 c-41 -21 -47 -31 -132 -200 -42 -82 -77 -151 -78 -152 0
-1 -81 -13 -179 -27 -98 -14 -190 -32 -206 -41 -64 -32 -93 -105 -72 -175 9
-30 43 -68 146 -167 l134 -128 -30 -165 c-39 -217 -33 -264 44 -310 61 -38
102 -28 282 64 l165 84 165 -84 c180 -92 221 -102 282 -64 77 46 83 93 44 310
l-30 165 134 128 c103 99 137 137 146 167 21 70 -8 143 -72 175 -16 9 -108 27
-206 41 -98 14 -179 26 -179 27 -1 1 -36 70 -77 152 -78 155 -102 190 -144
206 -37 14 -104 11 -137 -6z"/>
<path d="M4296 4185 c-41 -21 -47 -31 -132 -200 -42 -82 -77 -151 -78 -152 0
-1 -81 -13 -179 -27 -98 -14 -190 -32 -206 -41 -64 -32 -93 -105 -72 -175 9
-30 43 -68 146 -167 l134 -128 -30 -165 c-39 -217 -33 -264 44 -310 61 -38
102 -28 282 64 l165 84 165 -84 c180 -92 221 -102 282 -64 77 46 83 93 44 310
l-30 165 134 128 c103 99 137 137 146 167 21 70 -8 143 -72 175 -16 9 -108 27
-206 41 -98 14 -179 26 -179 27 -1 1 -36 70 -77 152 -78 155 -102 190 -144
206 -37 14 -104 11 -137 -6z"/>
<path d="M2417 3440 c-486 -88 -817 -538 -746 -1013 30 -200 127 -389 269
-520 39 -36 70 -67 70 -70 0 -4 -32 -22 -72 -42 -117 -59 -216 -133 -329 -245
-159 -159 -270 -339 -334 -540 -53 -170 -58 -213 -62 -562 -5 -326 -5 -327 18
-368 15 -26 37 -47 64 -60 41 -20 62 -20 1265 -20 1203 0 1224 0 1265 20 27
13 49 34 64 60 23 41 23 42 18 368 -4 349 -9 392 -62 562 -103 326 -363 634
-663 785 -40 20 -72 38 -72 42 0 3 31 34 70 70 107 99 195 242 240 388 125
408 -64 853 -446 1052 -126 66 -236 94 -384 98 -69 2 -147 0 -173 -5z"/>
</g>
</svg>
